# xmcd CD database file
#
# Track frame offsets:
#	150
#	16545
#	36003
#	45565
#
# Disc length: 823 seconds
#
# Revision: 2
# Processed by: cddbd v1.5PL3 Copyright (c) Steve Scherf et al.
# Submitted via: CDex 1.51
#
DISCID=1f033504
DTITLE=水木一郎 - 料理少年Ｋタロー テーマソング  熱くるしいぜ
DYEAR=2001
DGENRE=Anime
TTITLE0=熱くるしいぜ
TTITLE1=お好み焼きは地球を救う2001
TTITLE2=お好み焼きは地球を救う 愛のテーマ (リプライズ)
TTITLE3=熱くるしいぜ (オリジナル・カラオケ)
EXTD=YEAR: 2001
EXTT0=
EXTT1=
EXTT2=
EXTT3=
PLAYORDER=
